<svg
  xmlns="http://www.w3.org/2000/svg"
  width="24"
  height="24"
  viewBox="0 0 24 24"
  fill="none"
  stroke="currentColor"
  stroke-width="2"
  stroke-linecap="round"
  stroke-linejoin="round"
>
  <path
     style="fill:#ff8f00;stroke-width:0.047;fill-opacity:1;stroke-dasharray:none;stroke:#ff8f00;stroke-opacity:1"
     d="m 1.9026123,19.608962 c -0.2118662,-0.07774 -0.4174497,-0.2439 -0.5334421,-0.431139 -0.076717,-0.12384 -0.1306113,-0.322421 -0.1306113,-0.481257 0,-0.08521 0.052058,-0.569934 0.1156844,-1.07716 C 1.7171612,14.726244 1.9318576,12.427382 2.0569266,10.095424 2.155176,8.2635255 2.2573895,7.6575877 2.5753046,7.0223953 2.9217265,6.3302467 3.4376679,5.9296626 4.2882181,5.6924653 4.7231434,5.5711755 5.0110572,5.5289885 5.3982473,5.5298167 c 0.444982,9.518e-4 0.6735936,0.04992 1.0165531,0.2177431 0.7093213,0.3470982 1.100923,0.994218 1.266419,2.0927518 0.035304,0.234343 0.04218,0.4302059 0.041836,1.1918208 -4.229e-4,0.9387718 -0.00686,1.0560266 -0.1282941,2.3369036 -0.037774,0.398442 -0.081392,0.861149 -0.096929,1.028238 -0.043958,0.472741 -0.037919,1.385519 0.010587,1.600226 0.082245,0.364048 0.2372567,0.561092 0.6767435,0.860246 0.2235061,0.152139 0.2594958,0.168365 0.4857579,0.219009 0.2005463,0.04489 0.3114169,0.0547 0.6182715,0.0547 0.3630102,0 0.3778224,-0.0019 0.5083668,-0.06603 0.092212,-0.04528 0.1552049,-0.09668 0.2004754,-0.163583 0.1637116,-0.241936 0.2094996,-0.470714 0.2381046,-1.189664 0.03436,-0.86356 0.130416,-1.526644 0.313106,-2.161358 0.45738,-1.5890616 1.303169,-2.5359618 2.460017,-2.7541034 0.30846,-0.058165 0.811019,-0.036325 1.093951,0.04754 0.914855,0.2711753 1.478877,1.0011438 1.727864,2.2362354 0.07566,0.375308 0.114651,0.682463 0.187923,1.480367 0.106722,1.16215 0.181656,1.601126 0.327729,1.919901 0.09672,0.211081 0.154677,0.252801 0.326522,0.235065 0.456554,-0.04712 1.155937,-0.66987 1.945239,-1.732094 0.410034,-0.551814 0.788702,-1.135424 1.667063,-2.569309 0.211398,-0.345098 0.418273,-0.6672012 0.459722,-0.7157859 0.160971,-0.1886795 0.470804,-0.3276508 0.73049,-0.3276508 0.268642,0 0.564077,0.1339479 0.739556,0.335309 0.147689,0.1694739 0.22702,0.3701357 0.238121,0.6023107 0.0116,0.242743 -0.02521,0.375807 -0.170532,0.616421 -1.626038,2.692218 -2.361198,3.731084 -3.243358,4.583235 -1.033528,0.99837 -2.063335,1.37392 -3.031656,1.105584 -0.372857,-0.103324 -0.684553,-0.289971 -0.959997,-0.574856 -0.21386,-0.22119 -0.344558,-0.410715 -0.479111,-0.69476 -0.268955,-0.567771 -0.382847,-1.138853 -0.513145,-2.573049 -0.09784,-1.076955 -0.182366,-1.556474 -0.324534,-1.841137 -0.08642,-0.173036 -0.144963,-0.20987 -0.309846,-0.194949 -0.229828,0.0208 -0.390363,0.143066 -0.592435,0.451212 -0.344469,0.525293 -0.606822,1.599763 -0.606822,2.485247 0,1.433026 -0.431702,2.455468 -1.266522,2.999631 -0.763742,0.497832 -1.725346,0.584894 -2.9742151,0.269281 C 7.6557829,16.858206 7.5670986,16.816955 7.2271025,16.589661 6.3972989,16.034921 6.0027449,15.596776 5.7386996,14.936816 5.4460305,14.205313 5.417911,13.328073 5.6205899,11.252191 5.8201615,9.2081347 5.8146268,8.104385 5.6023228,7.6093232 L 5.5533733,7.49518 5.3180693,7.5085707 C 5.0766197,7.5223111 4.6655949,7.6187635 4.5159664,7.6967947 4.2942424,7.8124238 4.1659137,8.268186 4.0906261,9.2074002 4.0777472,9.3680623 4.0458011,9.8991237 4.019634,10.387537 3.8991519,12.636379 3.6812717,14.937335 3.3061408,17.922485 3.1889273,18.855226 3.1730177,18.949384 3.1098027,19.084471 3.0127667,19.291832 2.8569052,19.449397 2.6454383,19.55391 2.4854925,19.63296 2.4516326,19.6408 2.246049,19.64642 2.0732261,19.65112 1.9940213,19.64252 1.9026123,19.60896 Z" />
</svg>
